HIERARCHY
ROOT Hips
{
    OFFSET 0.000000 0.000000 0.000000
    CHANNELS 6 Xposition Yposition Zposition Zrotation Xrotation Yrotation
    JOINT Spine
    {
        OFFSET -0.000000 7.761268 0.000000
        CHANNELS 3 Zrotation Xrotation Yrotation
        JOINT Spine1
        {
            OFFSET -0.000000 24.785763 0.000000
            CHANNELS 3 Zrotation Xrotation Yrotation
            JOINT Neck
            {
                OFFSET -0.000000 24.683973 2.243998
                CHANNELS 3 Zrotation Xrotation Yrotation
                JOINT Head
                {
                    OFFSET -0.000000 13.250945 -1.892992
                    CHANNELS 3 Zrotation Xrotation Yrotation
                    End Site
                    {
                        OFFSET -0.000000 23.662401 0.000000
                    }
                }
            }
            JOINT LeftShoulder
            {
                OFFSET 3.794134 23.444212 -0.177979
                CHANNELS 3 Zrotation Xrotation Yrotation
                JOINT LeftArm
                {
                    OFFSET 9.211075 0.000000 0.000000
                    CHANNELS 3 Zrotation Xrotation Yrotation
                    JOINT LeftForeArm
                    {
                        OFFSET 34.352840 0.000000 0.000000
                        CHANNELS 3 Zrotation Xrotation Yrotation
                        JOINT LeftHand
                        {
                            OFFSET 25.460636 0.000000 0.000000
                            CHANNELS 3 Zrotation Xrotation Yrotation
                            End Site
                            {
                                OFFSET 14.197442 0.000000 0.000000
                            }
                        }
                    }
                }
            }
            JOINT RightShoulder
            {
                OFFSET -3.767389 23.444212 -0.177979
                CHANNELS 3 Zrotation Xrotation Yrotation
                JOINT RightArm
                {
                    OFFSET -9.211075 0.000000 0.000000
                    CHANNELS 3 Zrotation Xrotation Yrotation
                    JOINT RightForeArm
                    {
                        OFFSET -34.352840 0.000000 0.000000
                        CHANNELS 3 Zrotation Xrotation Yrotation
                        JOINT RightHand
                        {
                            OFFSET -25.460636 0.000000 0.000000
                            CHANNELS 3 Zrotation Xrotation Yrotation
                            End Site
                            {
                                OFFSET -14.197442 0.000000 0.000000
                            }
                        }
                    }
                }
            }
        }
    }
    JOINT LeftUpLeg
    {
        OFFSET 9.464960 0.000000 0.000000
        CHANNELS 3 Zrotation Xrotation Yrotation
        JOINT LeftLeg
        {
            OFFSET -0.000000 -36.073700 0.000000
            CHANNELS 3 Zrotation Xrotation Yrotation
            JOINT LeftFoot
            {
                OFFSET -0.000000 -40.808823 0.000000
                CHANNELS 3 Zrotation Xrotation Yrotation
                JOINT LeftToeBase
                {
                    OFFSET -0.000000 -6.152224 14.197442
                    CHANNELS 3 Zrotation Xrotation Yrotation
                    End Site
                    {
                        OFFSET -0.000000 0.000000 3.785984
                    }
                }
            }
        }
    }
    JOINT RightUpLeg
    {
        OFFSET -9.464960 0.000000 0.000000
        CHANNELS 3 Zrotation Xrotation Yrotation
        JOINT RightLeg
        {
            OFFSET -0.000000 -36.073700 0.000000
            CHANNELS 3 Zrotation Xrotation Yrotation
            JOINT RightFoot
            {
                OFFSET -0.000000 -40.808823 0.000000
                CHANNELS 3 Zrotation Xrotation Yrotation
                JOINT RightToeBase
                {
                    OFFSET -0.000000 -6.152224 14.197442
                    CHANNELS 3 Zrotation Xrotation Yrotation
                    End Site
                    {
                        OFFSET -0.000000 0.000000 3.785984
                    }
                }
            }
        }
    }
}
MOTION
Frames:    7
Frame Time:    0.004000
-39.613094    78.791084    -202.457932    0.877362    0.688471    9.161449    -0.101564    -3.973923    0.937325    -1.499709    -6.526262    0.855385    -0.870249    15.868146    -4.586185    2.722317    2.550617    -4.442428    9.099579    3.711523    -5.103498    -15.219996    7.228566    0.410311    4.363580    -5.812140    -0.845592    -4.157704    -5.723740    -1.559749    -11.103942    -0.024235    -1.270417    17.285955    0.510547    -4.586899    -2.565846    1.405910    -1.307315    -2.663641    1.381865    -0.224285    -3.115214    6.616957    -0.465845    1.036657    -2.744921    -5.777771    0.427748    -3.058014    11.262230    0.000000    0.000000    0.000000    0.693285    12.613098    -3.777855    0.942474    -13.444098    0.316940    -0.499449    0.141427    -20.837904    0.000000    0.000000    0.000000    
-39.616150    78.792343    -202.459167    0.882782    0.693426    9.146831    -0.112139    -3.974885    0.943951    -1.489844    -6.528300    0.862912    -0.922317    15.909331    -4.580811    2.799622    2.513378    -4.426765    9.098812    3.713456    -5.119779    -15.218157    7.240848    0.424358    4.361337    -5.815247    -0.848809    -4.148546    -5.726591    -1.567770    -11.105280    -0.034521    -1.280540    17.284164    0.542551    -4.588035    -2.571725    1.387832    -1.302365    -2.644437    1.363648    -0.217185    -3.123899    6.604254    -0.486189    1.038559    -2.738430    -5.732783    0.419906    -3.042218    11.257778    0.000000    0.000000    0.000000    0.679947    12.603293    -3.767344    0.956340    -13.444001    0.306356    -0.463589    0.142711    -20.837214    0.000000    0.000000    0.000000    
-39.622112    78.789650    -202.462143    0.876479    0.697427    9.143581    -0.059669    -3.937637    0.988400    -1.588107    -6.604954    0.898859    -0.854439    15.967143    -4.625259    2.796963    2.513323    -4.474055    9.178877    3.754078    -5.223879    -15.234986    7.268968    0.424319    4.365816    -5.844639    -0.839215    -4.147136    -5.756474    -1.563757    -11.074974    0.032203    -1.364450    17.299562    0.513055    -4.586793    -2.572014    1.390643    -1.284779    -2.607646    1.367239    -0.238408    -3.113828    6.608016    -0.474185    1.047352    -2.744970    -5.817152    0.447001    -3.067163    11.304760    0.000000    0.000000    0.000000    0.690921    12.592422    -3.781327    0.951725    -13.439227    0.339491    -0.518067    0.157734    -20.834993    0.000000    0.000000    0.000000    
-39.627724    78.790375    -202.459763    0.876050    0.689061    9.134473    -0.113811    -3.967797    0.939140    -1.486279    -6.522444    0.858421    -0.863664    15.903054    -4.578558    2.711642    2.550980    -4.436093    9.126145    3.723773    -5.100860    -15.214044    7.178069    0.410693    4.343613    -5.788765    -0.855994    -4.128917    -5.700343    -1.564755    -11.102214    -0.035371    -1.271083    17.285297    0.498433    -4.591088    -2.574695    1.393499    -1.289073    -2.585011    1.369799    -0.232409    -3.107209    6.604583    -0.457753    1.039387    -2.722468    -5.797711    0.448913    -3.081816    11.285672    0.000000    0.000000    0.000000    0.695384    12.596768    -3.768851    0.950901    -13.437533    0.293492    -0.485218    0.145768    -20.795906    0.000000    0.000000    0.000000    
-39.631523    78.789589    -202.459335    0.879753    0.693789    9.125687    -0.074318    -3.935802    0.986514    -1.573247    -6.596200    0.898384    -0.813965    15.970327    -4.623617    2.723689    2.539759    -4.481965    9.185429    3.751449    -5.218956    -15.226450    7.244287    0.432922    4.373425    -5.823358    -0.852861    -4.224780    -5.733351    -1.569750    -11.071206    0.036931    -1.361820    17.298452    0.509032    -4.581857    -2.575465    1.376688    -1.277596    -2.579917    1.353166    -0.230401    -3.112136    6.604114    -0.487162    1.044335    -2.732376    -5.771730    0.420681    -3.064602    11.301634    0.000000    0.000000    0.000000    0.691225    12.591494    -3.767167    0.956261    -13.434780    0.307303    -0.493901    0.123126    -20.809246    0.000000    0.000000    0.000000    
-39.639053    78.787994    -202.461548    0.871015    0.696498    9.125848    -0.075112    -3.929016    0.982676    -1.565103    -6.609103    0.894849    -0.832799    15.985728    -4.627090    2.753939    2.550670    -4.482265    9.188562    3.765710    -5.213109    -15.215737    7.219522    0.424466    4.366453    -5.810061    -0.855389    -4.199975    -5.720062    -1.577343    -11.074477    0.027169    -1.362764    17.304119    0.524749    -4.586858    -2.573393    1.377346    -1.272543    -2.583125    1.354619    -0.259735    -3.097584    6.589304    -0.490253    1.041306    -2.713652    -5.764321    0.489169    -3.091167    11.292556    0.000000    0.000000    0.000000    0.703842    12.588773    -3.752125    0.952639    -13.436761    0.313434    -0.596358    0.146056    -20.811884    0.000000    0.000000    0.000000    
-39.642990    78.787903    -202.460342    0.874776    0.693704    9.110588    -0.135114    -3.958202    0.941626    -1.456286    -6.540284    0.863150    -0.857048    15.963936    -4.576110    2.697024    2.552947    -4.435853    9.133640    3.717299    -5.117567    -15.200459    7.109290    0.432729    4.338820    -5.735094    -0.872803    -4.186772    -5.644235    -1.593231    -11.107946    -0.014218    -1.271420    17.297815    0.539458    -4.599483    -2.583457    1.347202    -1.266702    -2.511085    1.323804    -0.233177    -3.100610    6.586540    -0.488695    1.043982    -2.702906    -5.785932    0.472075    -3.097754    11.326697    0.000000    0.000000    0.000000    0.701458    12.586563    -3.750192    0.954241    -13.435618    0.289399    -0.513134    0.133369    -20.800726    0.000000    0.000000    0.000000    
